<svg id="svg" version="1.1" xmlns="http://www.w3.org/2000/svg" xmlns:xlink="http://www.w3.org/1999/xlink" width="400" height="400" viewBox="0, 0, 400,400"><g id="svgg"><path id="path0" d="M134.375 13.669 C 103.220 20.622,79.176 46.389,75.362 76.911 L 74.820 81.250 58.699 81.262 C 30.124 81.282,15.504 88.500,5.713 107.422 C -0.383 119.202,0.000 111.482,0.000 222.574 C 0.000 339.688,-2.017 325.000,14.063 325.000 L 25.000 325.000 25.000 342.188 C 25.000 364.840,22.083 362.500,50.316 362.500 L 72.507 362.500 74.825 366.602 C 90.521 394.370,134.445 394.370,150.170 366.602 L 152.493 362.500 212.500 362.500 L 272.507 362.500 274.825 366.602 C 290.521 394.370,334.445 394.370,350.170 366.602 L 352.493 362.500 374.684 362.500 C 403.308 362.500,400.001 366.200,399.995 334.180 C 399.987 300.502,397.624 291.143,385.170 275.471 C 369.806 256.137,354.020 250.014,319.514 250.005 L 298.012 250.000 293.838 241.602 C 267.036 187.687,206.989 162.122,150.483 180.568 C 120.504 190.355,96.565 211.184,81.866 240.271 C 77.485 248.942,76.734 249.994,74.930 249.997 C 49.972 250.038,25.000 277.649,25.000 305.203 L 25.000 312.500 18.723 312.500 L 12.446 312.500 12.681 218.945 C 12.941 115.659,12.625 122.215,17.786 113.293 C 25.952 99.175,35.841 94.579,59.375 93.963 L 74.609 93.564 76.252 102.055 C 86.435 154.700,147.756 180.014,192.283 149.955 C 208.554 138.971,219.923 121.700,223.748 102.154 L 225.391 93.761 240.820 93.756 L 256.250 93.750 256.253 95.898 C 256.262 102.911,261.714 106.243,273.180 106.247 L 281.907 106.250 282.406 108.521 C 283.111 111.733,287.482 117.608,291.202 120.343 C 297.170 124.732,298.962 125.000,322.364 125.000 L 343.750 125.000 343.750 129.688 C 343.750 135.528,345.328 137.500,350.000 137.500 C 355.647 137.500,356.250 136.143,356.250 123.437 L 356.250 112.500 370.313 112.500 C 386.500 112.500,387.500 112.136,387.500 106.250 C 387.500 100.364,386.500 100.000,370.313 100.000 L 356.250 100.000 356.250 87.500 L 356.250 75.000 370.313 75.000 C 386.500 75.000,387.500 74.636,387.500 68.750 C 387.500 62.864,386.500 62.500,370.313 62.500 L 356.250 62.500 356.250 51.563 C 356.250 38.857,355.647 37.500,350.000 37.500 C 345.328 37.500,343.750 39.472,343.750 45.312 L 343.750 50.000 322.364 50.000 C 298.962 50.000,297.170 50.268,291.202 54.657 C 287.482 57.392,283.111 63.267,282.406 66.479 L 281.907 68.750 273.180 68.753 C 261.714 68.757,256.262 72.089,256.253 79.102 L 256.250 81.250 240.820 81.244 L 225.391 81.239 223.748 72.846 C 218.269 44.851,198.067 22.924,170.260 14.793 C 162.649 12.567,142.183 11.926,134.375 13.669 M167.578 28.159 C 221.086 44.643,227.589 117.936,177.734 142.627 C 136.363 163.116,88.281 133.605,88.281 87.725 C 88.281 46.253,128.426 16.097,167.578 28.159 M131.053 62.592 C 98.245 91.663,100.000 89.896,100.000 93.837 C 100.000 99.624,101.050 100.000,117.188 100.000 L 131.250 100.000 131.250 117.188 C 131.250 146.032,130.956 146.069,168.947 112.408 C 201.755 83.337,200.000 85.104,200.000 81.163 C 200.000 75.376,198.950 75.000,182.813 75.000 L 168.750 75.000 168.750 57.813 C 168.750 28.968,169.044 28.931,131.053 62.592 M157.653 86.096 C 158.307 86.751,161.753 87.248,167.392 87.500 L 176.120 87.891 160.130 102.106 L 144.141 116.322 143.750 103.119 C 143.276 87.096,143.925 88.007,132.608 87.500 L 123.880 87.109 139.870 72.894 L 155.859 58.678 156.250 71.881 C 156.526 81.201,156.938 85.381,157.653 86.096 M343.750 87.500 L 343.750 112.500 325.586 112.481 C 294.788 112.450,294.141 111.936,294.141 87.500 C 294.141 63.047,294.559 62.712,325.195 62.580 L 343.750 62.500 343.750 87.500 M281.250 87.500 L 281.250 93.750 275.000 93.750 L 268.750 93.750 268.750 87.500 L 268.750 81.250 275.000 81.250 L 281.250 81.250 281.250 87.500 M204.862 189.496 C 239.172 195.144,265.912 216.079,283.834 251.325 C 290.073 263.594,287.466 262.497,310.415 262.514 C 346.097 262.540,356.365 265.518,370.721 280.004 C 383.570 292.968,386.671 302.450,387.291 330.664 L 387.715 350.000 371.982 350.000 L 356.250 350.000 356.250 343.133 C 356.250 330.398,352.407 321.146,343.363 312.109 C 315.782 284.548,268.750 304.104,268.750 343.133 L 268.750 350.000 212.500 350.000 L 156.250 350.000 156.250 343.133 C 156.250 330.398,152.407 321.146,143.363 312.109 C 115.782 284.548,68.750 304.104,68.750 343.133 L 68.750 350.000 53.125 350.000 L 37.500 350.000 37.506 329.492 C 37.514 299.875,38.710 292.404,44.944 283.015 C 52.556 271.551,63.514 264.862,77.264 263.288 C 85.709 262.320,85.302 262.687,91.804 250.199 C 115.883 203.956,157.374 181.679,204.862 189.496 M169.762 194.948 C 139.445 200.492,113.218 219.988,99.199 247.400 C 95.644 254.351,95.176 258.458,97.656 260.938 C 99.200 262.482,100.260 262.500,187.500 262.500 C 274.740 262.500,275.800 262.482,277.344 260.938 C 280.864 257.417,278.684 250.618,269.700 237.109 C 248.371 205.036,207.920 187.970,169.762 194.948 M181.250 228.516 L 181.250 250.000 147.238 250.000 L 113.226 250.000 114.139 248.242 C 124.670 227.968,156.391 207.881,179.102 207.105 L 181.250 207.031 181.250 228.516 M203.516 208.214 C 227.288 213.240,251.393 229.954,260.631 247.819 L 261.759 250.000 227.754 250.000 L 193.750 250.000 193.750 228.516 L 193.750 207.031 195.898 207.045 C 197.080 207.052,200.508 207.579,203.516 208.214 M201.563 276.563 C 200.521 277.604,200.000 279.167,200.000 281.250 C 200.000 287.027,201.181 287.500,215.625 287.500 C 230.069 287.500,231.250 287.027,231.250 281.250 C 231.250 275.473,230.069 275.000,215.625 275.000 C 204.167 275.000,202.995 275.130,201.563 276.563 M121.789 314.507 C 148.125 322.935,150.338 359.941,125.210 371.716 C 114.199 376.876,98.705 373.818,90.293 364.826 C 68.890 341.944,92.025 304.983,121.789 314.507 M321.789 314.507 C 348.125 322.935,350.338 359.941,325.210 371.716 C 314.199 376.876,298.705 373.818,290.293 364.826 C 268.890 341.944,292.025 304.983,321.789 314.507 M102.511 320.418 C 92.695 324.190,87.100 333.578,87.676 345.313 C 89.265 377.730,137.500 376.218,137.500 343.750 C 137.500 325.429,119.941 313.720,102.511 320.418 M302.511 320.418 C 292.695 324.190,287.100 333.578,287.676 345.313 C 289.265 377.730,337.500 376.218,337.500 343.750 C 337.500 325.429,319.941 313.720,302.511 320.418 M118.562 333.590 C 128.724 339.786,124.379 355.463,112.500 355.463 C 110.367 355.463,107.983 354.852,106.438 353.910 C 96.276 347.714,100.621 332.037,112.500 332.037 C 114.633 332.037,117.017 332.648,118.562 333.590 M318.562 333.590 C 328.724 339.786,324.379 355.463,312.500 355.463 C 305.834 355.463,300.787 350.416,300.787 343.750 C 300.787 337.084,305.834 332.037,312.500 332.037 C 314.633 332.037,317.017 332.648,318.562 333.590 " stroke="none" fill="#000000" fill-rule="evenodd"></path></g></svg>
